<?xml version="1.0" encoding="UTF-8"?>
<svg width="24" height="24" viewBox="0 0 24 24" fill="none" xmlns="http://www.w3.org/2000/svg">
    <path d="M9 18V5L21 3V16" stroke="#2563eb" stroke-width="2" stroke-linecap="round" stroke-linejoin="round"/>
    <path d="M6 18C7.65685 18 9 16.6569 9 15C9 13.3431 7.65685 12 6 12C4.34315 12 3 13.3431 3 15C3 16.6569 4.34315 18 6 18Z" stroke="#2563eb" stroke-width="2" stroke-linecap="round" stroke-linejoin="round"/>
    <path d="M18 16C19.6569 16 21 14.6569 21 13C21 11.3431 19.6569 10 18 10C16.3431 10 15 11.3431 15 13C15 14.6569 16.3431 16 18 16Z" stroke="#2563eb" stroke-width="2" stroke-linecap="round" stroke-linejoin="round"/>
</svg> 